<?xml version="1.0" standalone="no"?>
<!DOCTYPE svg PUBLIC "-//W3C//DTD SVG 20010904//EN"
 "http://www.w3.org/TR/2001/REC-SVG-20010904/DTD/svg10.dtd">
<svg version="1.0" xmlns="http://www.w3.org/2000/svg"
 width="512.000000pt" height="512.000000pt" viewBox="0 0 512.000000 512.000000"
 preserveAspectRatio="xMidYMid meet">
<metadata>
Created by potrace 1.11, written by Peter Selinger 2001-2013
</metadata>
<g transform="translate(0.000000,512.000000) scale(0.100000,-0.100000)"
fill="#000000" stroke="none">
<path d="M2331 5109 c-326 -29 -646 -123 -949 -280 -230 -118 -411 -250 -606
-438 -671 -654 -930 -1608 -681 -2516 185 -675 662 -1262 1287 -1584 583 -301
1231 -369 1863 -196 318 87 658 261 915 468 41 34 124 108 184 166 810 788
1006 2000 486 3007 -61 119 -188 324 -200 324 -3 0 -163 -157 -355 -350 l-350
-350 156 0 c107 0 159 -4 167 -12 7 -7 12 -35 12 -63 0 -28 -5 -56 -12 -63 -9
-9 -77 -12 -242 -12 l-231 0 -705 -705 -705 -705 -280 280 -280 280 458 458
c403 403 457 461 457 488 0 38 16 54 55 54 25 0 44 14 105 75 l74 75 -105 0
c-68 0 -109 4 -117 12 -7 7 -12 35 -12 63 0 28 5 56 12 63 8 8 66 12 193 12
l181 0 74 75 74 75 -255 0 c-185 0 -258 3 -267 12 -16 16 -16 110 0 126 9 9
99 12 342 12 l331 0 420 420 421 420 282 -276 283 -277 35 34 c20 19 42 47 51
63 31 59 19 75 -229 323 -234 233 -260 253 -310 238 -13 -4 -84 -67 -158 -141
l-135 -133 -103 68 c-468 312 -1062 460 -1631 410z m182 -838 c37 -38 67 -73
67 -77 0 -4 -90 -98 -200 -208 l-199 -201 20 -65 c29 -90 36 -260 15 -360 -30
-146 -130 -309 -247 -407 -72 -59 -218 -130 -304 -148 -89 -19 -221 -19 -310
0 -86 18 -232 89 -304 148 -78 66 -136 140 -187 242 -52 105 -74 197 -74 315
0 118 22 210 74 315 51 102 109 176 187 242 72 59 218 130 304 148 238 50 487
-22 660 -191 l48 -46 181 181 c99 100 186 181 192 181 6 0 41 -31 77 -69z
m-819 -1961 l39 -12 -57 -56 -56 -57 -103 -1 c-172 -1 -293 -50 -412 -169
-117 -117 -169 -241 -169 -405 0 -164 52 -288 169 -405 117 -117 241 -169 405
-169 164 0 287 52 406 169 48 48 82 93 106 142 32 63 43 100 64 210 3 14 16
25 40 33 20 7 51 26 70 42 l34 30 0 -68 c0 -102 -24 -198 -74 -299 -78 -156
-175 -253 -331 -331 -105 -52 -197 -74 -315 -74 -118 0 -210 22 -315 74 -102
51 -176 109 -242 187 -59 72 -130 218 -148 304 -19 89 -19 221 0 310 8 39 35
111 59 160 78 156 175 253 331 331 122 60 191 75 340 70 66 -3 138 -10 159
-16z m2554 -262 c16 -16 16 -110 0 -126 -17 -17 -1499 -17 -1516 0 -16 16 -16
110 0 126 17 17 1499 17 1516 0z m-2603 -408 l139 -140 -49 -50 c-78 -79 -109
-90 -253 -90 l-122 0 0 120 c0 83 5 132 15 155 13 32 110 145 124 145 3 0 69
-63 146 -140z m2303 108 c7 -7 12 -35 12 -63 0 -28 -5 -56 -12 -63 -17 -17
-1199 -17 -1216 0 -16 16 -16 110 0 126 17 17 1199 17 1216 0z m300 -300 c16
-16 16 -110 0 -126 -17 -17 -1499 -17 -1516 0 -16 16 -16 110 0 126 17 17
1499 17 1516 0z"/>
<path d="M1413 4080 c-278 -50 -477 -288 -477 -570 0 -164 52 -288 169 -405
117 -117 241 -169 405 -169 164 0 288 52 405 169 139 138 195 321 162 519 l-9
49 -256 -256 c-199 -199 -263 -257 -282 -257 -19 0 -77 52 -253 228 -125 125
-227 232 -227 237 0 13 132 145 145 145 6 0 80 -70 165 -155 85 -85 161 -155
169 -155 18 0 421 399 421 416 0 17 -96 101 -155 135 -104 61 -265 89 -382 69z"/>
</g>
</svg>
