<svg height="480pt" viewBox="-32 0 480 480.08" width="480pt" xmlns="http://www.w3.org/2000/svg"><g fill="#9bc9ff"><path d="m160.039062 240.078125c0 8.839844-7.164062 16-16 16-8.835937 0-16-7.160156-16-16 0-8.835937 7.164063-16 16-16 8.835938 0 16 7.164063 16 16zm0 0"/><path d="m216.039062 240.078125c0 8.839844-7.164062 16-16 16-8.835937 0-16-7.160156-16-16 0-8.835937 7.164063-16 16-16 8.835938 0 16 7.164063 16 16zm0 0"/><path d="m280.039062 240.078125c0 8.839844-7.164062 16-16 16-8.835937 0-16-7.160156-16-16 0-8.835937 7.164063-16 16-16 8.835938 0 16 7.164063 16 16zm0 0"/><path d="m336.039062 240.078125c0 8.839844-7.164062 16-16 16-8.835937 0-16-7.160156-16-16 0-8.835937 7.164063-16 16-16 8.835938 0 16 7.164063 16 16zm0 0"/><path d="m248.039062 120.078125c0 8.839844-7.164062 16-16 16-8.835937 0-16-7.160156-16-16 0-8.835937 7.164063-16 16-16 8.835938 0 16 7.164063 16 16zm0 0"/></g><path d="m403.277344 122.921875c-32.796875-70.539063-101.59375-117.449219-179.238282-122.21875l-7.832031-.703125-6.9375.175781c-23.953125.878907-47.425781 6.949219-68.800781 17.800781-56.824219 28.410157-92.640625 86.570313-92.429688 150.101563v29.785156l-46.855468 78.097657c-1.484375 2.46875-1.527344 5.546874-.105469 8.058593 1.417969 2.507813 4.078125 4.058594 6.960937 4.058594h50.085938l-4.855469 72.105469c-3.714843 21.335937 10.34375 41.71875 31.609375 45.824218.527344.101563 1.0625.152344 1.597656.152344.289063 0 .578126-.015625.867188-.046875l48.695312-5.28125v71.246094c0 4.421875 3.582032 8 8 8h192c4.417969 0 8-3.578125 8-8v-79.503906l62.519532-154.460938c13.742187-37.394531 12.566406-78.640625-3.28125-115.191406zm-11.671875 109.503906-62.984375 155.652344c-.4375 1.140625-.605469 2.371094-.488282 3.585937 0 .167969-.09375.3125-.09375.480469v71.933594h-176v-72c0-.167969-.089843-.308594-.097656-.476563-.007812-.167968.074219-.355468.050782-.546874-.105469-.488282-.253907-.964844-.449219-1.421876-.074219-.296874-.164063-.585937-.273438-.871093-.347656-.792969-.824219-1.519531-1.414062-2.152344-.058594-.066406-.082031-.144531-.136719-.210937l-.089844-.054688c-1.660156-1.757812-4.046875-2.644531-6.453125-2.398438l-56.296875 6.09375c-12.421875-3.125-20.21875-15.433593-17.738281-28l5.523437-81.445312c.292969-4.398438-3.027343-8.207031-7.425781-8.515625-.65625-.046875-45.046875 0-45.046875 0l40.726563-67.902344c.074219-.167969.132812-.34375.183593-.519531.234376-.476562.414063-.980469.535157-1.496094.160156-.523437.269531-1.058594.320312-1.601562 0-.183594.105469-.34375.105469-.535156v-31.945313c-.21875-57.496094 32.167969-110.152344 83.582031-135.894531 19.335938-9.816406 40.574219-15.308594 62.242188-16.105469h6.335937c74.273438 2.117187 140.996094 45.953125 172.421875 113.28125 14.15625 32.707031 15.214844 69.597656 2.960938 103.066406zm0 0" fill="#57a4ff"/><path d="m299.910156 88.214844c-9.566406-27.308594-34.570312-46.222656-63.453125-48-28.882812-1.777344-56.015625 13.933594-68.859375 39.863281-30.742187.277344-55.523437 25.257813-55.558594 56 0 4.421875 3.582032 8 8 8 4.417969 0 8-3.578125 8-8 .027344-22.078125 17.917969-39.972656 40-40 1.269532 0 2.535157.066406 3.800782.195313 3.566406.398437 6.957031-1.644532 8.269531-4.984376 8.960937-22.488281 31.378906-36.65625 55.535156-35.097656s44.566407 18.492188 50.5625 41.945313c.902344 3.542969 4.09375 6.023437 7.75 6.023437.519531 0 1.007813 0 2.082031-.082031 22.078126.027344 39.972657 17.921875 40 40 0 4.421875 3.582032 8 8 8 4.417969 0 8-3.578125 8-8-.035156-29.410156-22.789062-53.792969-52.128906-55.863281zm0 0" fill="#57a4ff"/><path d="m328.039062 217.550781v-57.472656c0-4.417969-3.582031-8-8-8h-80v-9.46875c11.019532-3.898437 17.628907-15.167969 15.652344-26.6875-1.976562-11.519531-11.964844-19.941406-23.652344-19.941406-11.691406 0-21.679687 8.421875-23.65625 19.941406-1.976562 11.519531 4.636719 22.789063 15.65625 26.6875v9.46875h-80c-4.417968 0-8 3.582031-8 8v57.472656c-11.019531 3.898438-17.632812 15.167969-15.65625 26.6875 1.976563 11.519531 11.964844 19.941407 23.65625 19.941407 11.6875 0 21.675782-8.421876 23.652344-19.941407 1.976563-11.519531-4.632812-22.789062-15.652344-26.6875v-49.472656h40v49.472656c-11.019531 3.898438-17.632812 15.167969-15.65625 26.6875 1.976563 11.519531 11.964844 19.941407 23.65625 19.941407 11.6875 0 21.675782-8.421876 23.652344-19.941407 1.976563-11.519531-4.632812-22.789062-15.652344-26.6875v-49.472656h48v49.472656c-11.019531 3.898438-17.632812 15.167969-15.65625 26.6875 1.976563 11.519531 11.964844 19.941407 23.65625 19.941407 11.6875 0 21.675782-8.421876 23.652344-19.941407 1.976563-11.519531-4.632812-22.789062-15.652344-26.6875v-49.472656h40v49.472656c-11.019531 3.898438-17.632812 15.167969-15.65625 26.6875 1.976563 11.519531 11.964844 19.941407 23.65625 19.941407 11.6875 0 21.675782-8.421876 23.652344-19.941407 1.976563-11.519531-4.632812-22.789062-15.652344-26.6875zm-96-105.472656c4.417969 0 8 3.582031 8 8 0 4.421875-3.582031 8-8 8-4.417968 0-8-3.578125-8-8 0-4.417969 3.582032-8 8-8zm-88 136c-4.417968 0-8-3.578125-8-8 0-4.417969 3.582032-8 8-8 4.417969 0 8 3.582031 8 8 0 4.421875-3.582031 8-8 8zm56 0c-4.417968 0-8-3.578125-8-8 0-4.417969 3.582032-8 8-8 4.417969 0 8 3.582031 8 8 0 4.421875-3.582031 8-8 8zm64 0c-4.417968 0-8-3.578125-8-8 0-4.417969 3.582032-8 8-8 4.417969 0 8 3.582031 8 8 0 4.421875-3.582031 8-8 8zm56 0c-4.417968 0-8-3.578125-8-8 0-4.417969 3.582032-8 8-8 4.417969 0 8 3.582031 8 8 0 4.421875-3.582031 8-8 8zm0 0" fill="#57a4ff"/></svg>